<svg id="tiendamia-logo" xmlns="http://www.w3.org/2000/svg" xmlns:xlink="http://www.w3.org/1999/xlink" x="0px" y="0px"
	 width="396.85px" height="108.977px" viewBox="0 0 396.85 108.977" enable-background="new 0 0 396.85 108.977"
	 xml:space="preserve">
<g>
	<path fill="#7800C8" d="M334.347,96.708C334.337,96.717,334.711,96.449,334.347,96.708 M396.862,80.536H342.9
		c-7.457,0-11.052,1.214-13.666,3.426c-0.915,0.667-5.341,4.312-10.129,7.763c-0.851,0.312-0.947-0.299-0.947-0.31
		c0,0,0.052-3.253,0.007-5.288c-0.084-3.979-2.066-5.591-7.404-5.591h-54.953v9.959c0,1.958,1.591,3.552,3.549,3.552
		c0,0,39.865,0.023,41.613-0.007c4.841-0.074,4.718,3.278,4.718,3.278v4.822c0,2.872,2.353,6.829,6.853,6.836
		c4.541,0.005,7.28-2.01,7.28-2.01c11.027-7.799,13.896-9.82,14.527-10.259c0,0,0.004-0.007,0.02-0.02
		c3.601-2.69,4.678-2.593,7.679-2.642h51.272c1.955,0,3.544-1.594,3.544-3.552v-0.042v-0.006V80.536z"/>
	<path fill="#ff3c3c" d="M26.41,55.385l-0.189,0.004c-0.781,0.036-1.674,0.064-2.618,0.064c-2.405,0-3.386-0.711-3.386-2.448V34.257
		h9.276V22.67h-9.276V6.368H6.755V22.67H0.012v11.587h6.743v22.872c0,9.069,6.575,10.291,13.01,10.291
		c3.548,0,9.281-0.542,9.522-0.562l0.583-0.053V58.75C29.822,57.586,29.038,55.385,26.41,55.385"/>
	<path fill="#ff3c3c" d="M68.394,39.53c1.149-4.027,4.571-6.584,8.923-6.584c4.273,0,7.74,2.67,8.678,6.584H68.394z M77.316,21.545
		c-13.293,0-22.939,9.763-22.939,23.217c0,13.454,9.726,23.22,23.126,23.22c9.829,0,17.423-4.411,21.383-12.424l0.383-0.772
		l-13.627-2.372l-0.234,0.332c-1.565,2.222-4.451,3.549-7.718,3.549c-4.515,0-8.145-2.978-9.07-7.328h31.823v-1.112
		C100.443,28.456,88.494,21.545,77.316,21.545"/>
	<path fill="#ff3c3c" d="M129.961,21.545c-4.683,0-9.082,1.805-12.334,5.012c0.009-0.134,0.017-0.274,0.023-0.414
		c-0.131-2.75-2.346-3.477-3.507-3.474h-9.647v44.191h13.466V38.625c2.383-2.879,5.372-4.461,8.44-4.461
		c4.17,0,6.662,2.632,6.662,7.038v25.66h13.466v-28.75C146.531,28.046,140.028,21.545,129.961,21.545"/>
	<path fill="#ff3c3c" d="M309.193,21.545c-5.686,0-10.622,2.489-14.332,7.214c-2.662-4.661-7.544-7.214-13.863-7.214
		c-4.444,0-8.806,1.824-12.007,4.957c0.006-0.184,0.001-0.365-0.004-0.539c-0.439-3.191-3.153-3.294-3.523-3.294h-0.004h-9.651
		v44.191h13.463V38.625c2.383-2.879,5.309-4.461,8.257-4.461c4.056,0,6.479,2.564,6.479,6.852v25.846h13.461V38.625
		c2.381-2.879,5.307-4.461,8.26-4.461c1.518,0,6.476,0.494,6.476,6.852v25.846h13.467v-28.75
		C325.669,28.046,319.201,21.545,309.193,21.545"/>
	<path fill="#ff3c3c" d="M338.853,0c-4.643,0-8.416,3.817-8.416,8.511c0,4.721,3.695,8.418,8.416,8.418
		c4.772,0,8.511-3.697,8.511-8.418C347.364,3.817,343.545,0,338.853,0"/>
	<path fill="#ff3c3c" d="M346.166,26.143c-0.132-2.75-2.347-3.475-3.507-3.473h-9.96v44.189h13.468l-0.001-0.644
		C346.143,52.79,346.117,27.15,346.166,26.143"/>
	<path fill="#ff3c3c" d="M374.231,55.896c-6.137,0-10.423-4.577-10.423-11.128c0-6.608,4.286-11.226,10.423-11.226
		c6.142,0,10.429,4.618,10.429,11.226C384.66,51.216,380.272,55.896,374.231,55.896 M396.83,66.217
		c-0.022-13.428-0.049-39.067,0-40.073c-0.133-2.75-2.347-3.476-3.508-3.475l-9.283,0.031V26.1
		c-3.039-3.026-7.044-4.555-11.932-4.555c-12.23,0-21.45,9.983-21.45,23.224c0,13.235,9.22,23.216,21.45,23.216
		c4.928,0,9.022-1.619,12.201-4.814l0.021,0.564h0.035c0.311,2.441,2.306,3.117,3.374,3.125h9.094L396.83,66.217z"/>
	<path fill="#ff3c3c" d="M225.719,55.896c-6.137,0-10.426-4.576-10.426-11.129c0-6.608,4.289-11.224,10.426-11.224
		c6.138,0,10.424,4.615,10.424,11.224C236.143,51.217,231.758,55.896,225.719,55.896 M248.316,26.144
		c-0.127-2.748-2.347-3.476-3.509-3.474l-9.28,0.028V26.1c-3.041-3.026-7.045-4.555-11.932-4.555
		c-12.229,0-21.451,9.983-21.451,23.222c0,13.239,9.222,23.217,21.451,23.217c4.929,0,9.021-1.617,12.193-4.813l0.026,0.565h0.037
		c0.314,2.439,2.303,3.115,3.369,3.123h9.096l-0.001-0.643C248.295,52.79,248.267,27.149,248.316,26.144"/>
	<path fill="#ff3c3c" d="M174.931,55.832c-5.881,0-10.319-4.8-10.319-11.16c0-6.412,4.34-11.066,10.319-11.066
		c5.978,0,10.315,4.655,10.315,11.066C185.247,51.032,180.813,55.832,174.931,55.832 M198.431,9.753l-0.001-0.197l-0.012-0.005
		c-0.227-2.374-2.076-3.131-3.336-3.229l-10.114-0.047v14.323c0,1.918,0.066,3.976,0.122,5.616c0.004,0.17,0.012,0.334,0.016,0.493
		c-2.431-2.77-6.783-5.255-12.984-5.255c-12.368,0-21.344,9.764-21.344,23.219c0,13.237,9.219,23.225,21.441,23.225
		c5.698,0,10.227-2.455,12.749-5.275v0.603c0,2.11,1.251,3.401,3.447,3.548c0.523,0.025,9.377-0.003,9.378,0l0.642-0.003V9.957
		l0.001-0.134l-0.001-0.036C198.433,9.777,198.431,9.762,198.431,9.753"/>
	<path fill="#ff3c3c" d="M42.466,0c-4.64,0-8.417,3.817-8.417,8.511c0,4.721,3.699,8.418,8.417,8.418
		c4.772,0,8.511-3.697,8.511-8.418C50.977,3.817,47.158,0,42.466,0"/>
	<path fill="#ff3c3c" d="M49.779,26.143c-0.131-2.75-2.347-3.475-3.507-3.473h-9.96v44.189h13.47l-0.002-0.644
		C49.757,52.79,49.729,27.15,49.779,26.143"/>
</g>
</svg>

